<svg id="Calque_1" data-name="Calque 1" xmlns="http://www.w3.org/2000/svg" viewBox="0 0 1920.04 1079.16"><defs><style>.cls-1{fill:#eea954;}.cls-2{fill:#da5b57;}.cls-3{font-size:79.8px;}.cls-23,.cls-3,.cls-4,.cls-51,.cls-52,.cls-8,.cls-9{fill:#1d1d1b;}.cls-19,.cls-20,.cls-23,.cls-24,.cls-3,.cls-36,.cls-37,.cls-4,.cls-41,.cls-43,.cls-44,.cls-51,.cls-52,.cls-57,.cls-58,.cls-61,.cls-70,.cls-72,.cls-73,.cls-74,.cls-79,.cls-8,.cls-80,.cls-89,.cls-9{font-family:NunitoSans-Bold, Nunito Sans;font-weight:700;}.cls-4{font-size:29.53px;}.cls-20,.cls-26,.cls-27,.cls-28,.cls-29,.cls-31,.cls-36,.cls-37,.cls-41,.cls-5,.cls-57,.cls-58,.cls-6,.cls-61,.cls-7,.cls-73,.cls-74,.cls-79,.cls-80{fill:#fff;}.cls-5{letter-spacing:-0.01em;}.cls-7{letter-spacing:-0.01em;}.cls-8{font-size:61.95px;}.cls-9{font-size:22.93px;}.cls-10{letter-spacing:-0.01em;}.cls-11{letter-spacing:0em;}.cls-12{letter-spacing:-0.01em;}.cls-13{letter-spacing:0em;}.cls-14{letter-spacing:-0.01em;}.cls-15{letter-spacing:0em;}.cls-16{letter-spacing:0em;}.cls-17{letter-spacing:0em;}.cls-18{letter-spacing:0em;}.cls-19{font-size:67.1px;}.cls-20,.cls-23,.cls-24{font-size:24.83px;}.cls-21{letter-spacing:-0.01em;}.cls-22{letter-spacing:-0.09em;}.cls-25,.cls-26{letter-spacing:-0.01em;}.cls-27{letter-spacing:-0.01em;}.cls-28{letter-spacing:-0.01em;}.cls-29{letter-spacing:0em;}.cls-30{letter-spacing:0em;}.cls-31{letter-spacing:-0.01em;}.cls-32{letter-spacing:-0.01em;}.cls-33{letter-spacing:0em;}.cls-34{letter-spacing:0em;}.cls-35{letter-spacing:0em;}.cls-36{font-size:64.93px;}.cls-37,.cls-41,.cls-43,.cls-44,.cls-51,.cls-52{font-size:24.03px;}.cls-38{letter-spacing:-0.09em;}.cls-39,.cls-41,.cls-44,.cls-51{letter-spacing:2.73em;}.cls-40{letter-spacing:0em;}.cls-42{letter-spacing:-0.01em;}.cls-43,.cls-44{fill:#f2f2f2;}.cls-45{letter-spacing:-0.01em;}.cls-46{letter-spacing:-0.01em;}.cls-47{letter-spacing:-0.01em;}.cls-48{letter-spacing:-0.01em;}.cls-49{letter-spacing:-0.01em;}.cls-50{letter-spacing:0em;}.cls-53{letter-spacing:0.03em;}.cls-54{letter-spacing:-0.01em;}.cls-55{letter-spacing:0.01em;}.cls-56{letter-spacing:0em;}.cls-57{font-size:66.71px;}.cls-58,.cls-61,.cls-70,.cls-72{font-size:24.69px;}.cls-59,.cls-61,.cls-70{letter-spacing:2.73em;}.cls-60{letter-spacing:0em;}.cls-62{letter-spacing:-0.01em;}.cls-63{letter-spacing:0em;}.cls-64{letter-spacing:-0.01em;}.cls-65{letter-spacing:-0.01em;}.cls-66{letter-spacing:-0.01em;}.cls-67{letter-spacing:0.04em;}.cls-68{letter-spacing:0em;}.cls-69{letter-spacing:0em;}.cls-70,.cls-71,.cls-72,.cls-84,.cls-85,.cls-86,.cls-87,.cls-88{fill:gray;}.cls-73{font-size:66.85px;}.cls-74{font-size:24.74px;}.cls-75{letter-spacing:-0.01em;}.cls-76{letter-spacing:-0.09em;}.cls-77{letter-spacing:0em;}.cls-78{letter-spacing:-0.01em;}.cls-79{font-size:64.85px;}.cls-80,.cls-89{font-size:24px;}.cls-81,.cls-87{letter-spacing:0em;}.cls-82{letter-spacing:0em;}.cls-83{letter-spacing:0em;}.cls-104,.cls-84{letter-spacing:-0.01em;}.cls-85,.cls-95{letter-spacing:-0.01em;}.cls-86{letter-spacing:-0.09em;}.cls-88,.cls-90{letter-spacing:-0.01em;}.cls-91{letter-spacing:-0.01em;}.cls-92{letter-spacing:-0.01em;}.cls-93{letter-spacing:-0.01em;}.cls-94{letter-spacing:0.04em;}.cls-96{letter-spacing:-0.01em;}.cls-97{letter-spacing:-0.02em;}.cls-98{letter-spacing:-0.02em;}.cls-99{letter-spacing:-0.04em;}.cls-100{letter-spacing:0em;}.cls-101{letter-spacing:-0.03em;}.cls-102{letter-spacing:-0.01em;}.cls-103{letter-spacing:0em;}.cls-105{letter-spacing:0em;}.cls-106{letter-spacing:0em;}.cls-107{letter-spacing:0em;}</style></defs><polygon class="cls-1" points="0.04 0 1920.04 540.34 1920.04 0 0.04 0"/><polygon class="cls-2" points="0.09 1079.16 1919.2 539 0 539.33 0.09 1079.16"/><text class="cls-3" transform="translate(24.48 84.46)">N</text><text class="cls-4" transform="translate(84.09 49.03)">OS SE<tspan class="cls-5" x="86.08" y="0">R</tspan><tspan class="cls-6" x="106.34" y="0">VIC</tspan><tspan class="cls-7" x="155.74" y="0">E</tspan><tspan class="cls-6" x="172.84" y="0">S</tspan></text><text class="cls-8" transform="translate(208.79 188.49)">W</text><text class="cls-9" transform="translate(277.56 160.97)">EB &amp; MOBILE</text><text class="cls-9" transform="translate(210.29 235.1)"> </text><text class="cls-9" transform="translate(279.07 235.1)">Site <tspan class="cls-10" x="47.3" y="0">w</tspan><tspan x="66.76" y="0">eb vitrine</tspan></text><text class="cls-9" transform="translate(210.29 273.32)"> </text><text class="cls-9" transform="translate(279.07 273.32)">Site <tspan class="cls-10" x="47.3" y="0">w</tspan><tspan x="66.76" y="0">eb </tspan><tspan class="cls-11" x="98.93" y="0">E</tspan><tspan x="112.37" y="0">-</tspan><tspan class="cls-12" x="122.32" y="0">C</tspan><tspan class="cls-13" x="137.63" y="0">omme</tspan><tspan class="cls-14" x="203.02" y="0">r</tspan><tspan x="211.59" y="0">ce</tspan></text><text class="cls-9" transform="translate(210.29 311.54)"> </text><text class="cls-9" transform="translate(279.07 311.54)">Site Application sur Mesu<tspan class="cls-12" x="269.42" y="0">r</tspan><tspan x="277.97" y="0">e</tspan></text><text class="cls-9" transform="translate(210.29 349.76)"> </text><text class="cls-9" transform="translate(279.07 349.76)">Application Mobile</text><text class="cls-9" transform="translate(210.29 368.86)"> </text><text class="cls-9" transform="translate(210.29 387.96)"> </text><text class="cls-9" transform="translate(279.07 387.96)">Récupé<tspan class="cls-15" x="78.53" y="0">r</tspan><tspan class="cls-16" x="87.26" y="0">ation / </tspan><tspan class="cls-12" x="160.12" y="0">r</tspan><tspan x="168.68" y="0">e</tspan><tspan class="cls-17" x="180.85" y="0">s</tspan><tspan x="191.88" y="0">tau</tspan><tspan class="cls-18" x="225.99" y="0">r</tspan><tspan x="234.75" y="0">ation </tspan></text><text class="cls-9" transform="translate(210.29 415.47)"> </text><text class="cls-9" transform="translate(279.07 415.47)">des </text><text class="cls-9" transform="translate(322.36 415.47)">données (ph<tspan class="cls-11" x="130.73" y="0">o</tspan><tspan x="143.85" y="0">tos ou aut</tspan><tspan class="cls-14" x="249.61" y="0">r</tspan><tspan x="258.18" y="0">es)</tspan></text><text class="cls-19" transform="translate(632.24 186.01)">L</text><text class="cls-20" transform="translate(669.48 156.21)">OGICIEL &amp; <tspan class="cls-21" x="127.11" y="0">F</tspan><tspan x="140.92" y="0">ORM</tspan><tspan class="cls-22" x="198.4" y="0">A</tspan><tspan x="214.69" y="0">TION</tspan></text><text class="cls-23" transform="translate(637.35 217.05)"> </text><text class="cls-24" transform="translate(711.84 217.05)">N<tspan class="cls-25" x="18.55" y="0">e</tspan><tspan class="cls-26" x="31.59" y="0">t</tspan><tspan class="cls-6" x="40.6" y="0">t</tspan><tspan class="cls-27" x="49.76" y="0">o</tspan><tspan class="cls-26" x="63.84" y="0">y</tspan><tspan class="cls-6" x="76.75" y="0">age logiciel </tspan><tspan class="cls-28" x="211.66" y="0">(</tspan><tspan class="cls-6" x="220.23" y="0">O</tspan><tspan class="cls-29" x="239.57" y="0">p</tspan><tspan class="cls-6" x="254.45" y="0">timisation, </tspan></text><text class="cls-23" transform="translate(1093.23 212.22)"> </text><text class="cls-23" transform="translate(637.35 248.09)"> </text><text class="cls-23" transform="translate(711.84 248.09)">supp<tspan class="cls-21" x="56.27" y="0">r</tspan><tspan class="cls-30" x="65.53" y="0">ession </tspan><tspan class="cls-6" x="144.64" y="0">de virus </tspan><tspan class="cls-31" x="241.51" y="0">e</tspan><tspan class="cls-6" x="254.52" y="0" xml:space="preserve">t de  pages </tspan></text><text class="cls-23" transform="translate(1100.11 243.25)"> </text><text class="cls-23" transform="translate(637.35 279.13)"> </text><text class="cls-23" transform="translate(711.84 279.13)">publicitai<tspan class="cls-21" x="104.14" y="0">r</tspan><tspan x="113.41" y="0">es)</tspan></text><text class="cls-23" transform="translate(637.35 328.79)"> </text><text class="cls-23" transform="translate(711.84 328.79)">Initiation, <tspan class="cls-32" x="113.85" y="0">f</tspan><tspan x="122.62" y="0">ormation </tspan><tspan class="cls-25" x="232.5" y="0">e</tspan><tspan class="cls-33" x="245.53" y="0">t cou</tspan><tspan class="cls-34" x="302.2" y="0">r</tspan><tspan x="311.58" y="0">s </tspan></text><text class="cls-23" transform="translate(637.35 357.77)"> </text><text class="cls-23" transform="translate(711.84 357.77)">in<tspan class="cls-35" x="20.83" y="0">f</tspan><tspan class="cls-30" x="29.62" y="0">ormatique</tspan></text><text class="cls-36" transform="translate(1185.4 177.09)">M</text><text class="cls-37" transform="translate(1240.01 148.26)"><tspan class="cls-38">A</tspan><tspan x="15.76" y="0">TERIEL</tspan></text><text class="cls-37" transform="translate(1190.46 198.93)"><tspan class="cls-39">	</tspan><tspan x="72.08" y="0">In</tspan><tspan class="cls-40" x="92.89" y="0">s</tspan><tspan x="104.45" y="0">tallation</tspan></text><text class="cls-41" transform="translate(1384.75 198.93)">	</text><text class="cls-37" transform="translate(1391.26 198.93)"><tspan class="cls-42">e</tspan><tspan x="12.59" y="0">t</tspan></text><text class="cls-41" transform="translate(1412.72 198.93)">	</text><path class="cls-6" d="M1426.11,201.12a6.62,6.62,0,0,1-3.21-.74,5.06,5.06,0,0,1-2.08-2.12,6.76,6.76,0,0,1-.72-3.19,6.68,6.68,0,0,1,.76-3.24,5.29,5.29,0,0,1,2.15-2.17,6.58,6.58,0,0,1,3.22-.77,7.56,7.56,0,0,1,2.44.4,5.08,5.08,0,0,1,1.91,1.07l-.87,2.11a5.68,5.68,0,0,0-1.57-.91,4.59,4.59,0,0,0-1.65-.31,3,3,0,0,0-2.42,1,4.07,4.07,0,0,0-.87,2.8,4,4,0,0,0,.87,2.77,3.06,3.06,0,0,0,2.42,1,4.6,4.6,0,0,0,1.65-.32,5.44,5.44,0,0,0,1.57-.91l.87,2.09a5.34,5.34,0,0,1-2,1.09,7.79,7.79,0,0,1-2.5.4Zm11.72,0a6.56,6.56,0,0,1-3.16-.74,5.22,5.22,0,0,1-2.1-2.14,6.75,6.75,0,0,1-.74-3.25,6.67,6.67,0,0,1,.74-3.23,5.17,5.17,0,0,1,2.1-2.12,7,7,0,0,1,6.32,0,5,5,0,0,1,2.09,2.12,6.78,6.78,0,0,1,.74,3.23,6.87,6.87,0,0,1-.74,3.25,5,5,0,0,1-2.09,2.14,6.5,6.5,0,0,1-3.16.74Zm0-2.33a2.68,2.68,0,0,0,2.23-1,5.59,5.59,0,0,0,0-5.66,2.64,2.64,0,0,0-2.21-1,2.68,2.68,0,0,0-2.22,1,4.43,4.43,0,0,0-.78,2.82,4.49,4.49,0,0,0,.77,2.84,2.66,2.66,0,0,0,2.21,1Zm15.31-9.9a3.93,3.93,0,0,1,3.14,1.2,5.44,5.44,0,0,1,1,3.63v7.21h-3v-7a3.18,3.18,0,0,0-.51-2,2,2,0,0,0-1.63-.62,2.71,2.71,0,0,0-2.07.82,3,3,0,0,0-.78,2.18v6.66h-3V189.18h2.93v1.75a4.1,4.1,0,0,1,1.61-1.51,4.92,4.92,0,0,1,2.29-.53Zm11.05.29h7.76v11.75h-3v-9.49h-4.76v9.49h-3v-9.49h-2.26v-2.26h2.26a5,5,0,0,1,1.34-3.83,6.08,6.08,0,0,1,4.06-1.41l1-.05.15,2.24-1.13.05a2.67,2.67,0,0,0-1.9.66,2.48,2.48,0,0,0-.55,1.76Zm4.59-5.48h3.36v3h-3.36Zm17.73,5.48v10.67A5.46,5.46,0,0,1,1485,204a6.44,6.44,0,0,1-4.51,1.42,11.13,11.13,0,0,1-3-.4,8.23,8.23,0,0,1-2.47-1.12l.84-2.11a8.63,8.63,0,0,0,4.52,1.32q3.12,0,3.12-3.08v-1.53a3.64,3.64,0,0,1-1.54,1.52,4.79,4.79,0,0,1-2.3.54,5,5,0,0,1-4.59-2.78,7.27,7.27,0,0,1,0-6.12,4.92,4.92,0,0,1,1.86-2.07,5.22,5.22,0,0,1,2.74-.73,4.79,4.79,0,0,1,2.3.54,3.61,3.61,0,0,1,1.54,1.53v-1.78Zm-6,9.08a2.8,2.8,0,0,0,2.25-.94,4.56,4.56,0,0,0,0-5.16,2.8,2.8,0,0,0-2.25-.94,2.77,2.77,0,0,0-2.23.94,4.45,4.45,0,0,0,0,5.15,2.75,2.75,0,0,0,2.23.95Zm19.92-9.08v11.75h-2.93v-1.8a3.83,3.83,0,0,1-1.49,1.47,4.27,4.27,0,0,1-2.12.52q-4.32,0-4.32-4.85v-7.09h3v7.11a2.82,2.82,0,0,0,.51,1.85,1.94,1.94,0,0,0,1.58.6,2.58,2.58,0,0,0,2-.83,3.14,3.14,0,0,0,.76-2.2v-6.53Zm10.86,2.21-1.75.17q-3,.31-3,3v6.34h-3V189.18h2.86v2.07a4,4,0,0,1,3.77-2.31l.92-.07Zm6.46-2.5a4.28,4.28,0,0,1,4.88,4.9v7.14h-2.86v-1.8a3.13,3.13,0,0,1-1.28,1.46,3.91,3.91,0,0,1-2,.53,4.71,4.71,0,0,1-2.14-.48,3.84,3.84,0,0,1-1.52-1.32,3.34,3.34,0,0,1-.55-1.88,3,3,0,0,1,.66-2,4.06,4.06,0,0,1,2.15-1.08,19.8,19.8,0,0,1,4.11-.34h.6v-.55a2.39,2.39,0,0,0-.52-1.73,2.32,2.32,0,0,0-1.71-.53,6.34,6.34,0,0,0-2,.33,9.4,9.4,0,0,0-2,.9l-.84-2.07a10.38,10.38,0,0,1,5-1.44ZM1517,199a2.54,2.54,0,0,0,2-.81,2.87,2.87,0,0,0,.76-2.07v-.51h-.43a17.57,17.57,0,0,0-2.5.14,2.43,2.43,0,0,0-1.27.51,1.27,1.27,0,0,0-.39,1,1.67,1.67,0,0,0,.53,1.27,1.93,1.93,0,0,0,1.35.49Zm14.63-.1a8.44,8.44,0,0,0,1.1-.07l-.14,2.24c-.48,0-.92.07-1.32.07a5.07,5.07,0,0,1-3.65-1.14,4.52,4.52,0,0,1-1.18-3.4v-5.12h-2.26v-2.26h2.26v-3.51h3v3.51h3.1v2.26h-3.1v5.07c0,1.57.73,2.35,2.19,2.35Zm2.69-15.14h3.32v3h-3.32Zm.17,17.21V189.18h3v11.75Zm11.46.19a6.56,6.56,0,0,1-3.16-.74,5.16,5.16,0,0,1-2.1-2.14A6.75,6.75,0,0,1,1540,195a6.67,6.67,0,0,1,.75-3.23,5.11,5.11,0,0,1,2.1-2.12,7,7,0,0,1,6.32,0,5.09,5.09,0,0,1,2.09,2.12,6.78,6.78,0,0,1,.73,3.23,6.86,6.86,0,0,1-.73,3.25,5.13,5.13,0,0,1-2.09,2.14,6.56,6.56,0,0,1-3.16.74Zm0-2.33a2.69,2.69,0,0,0,2.23-1,5.59,5.59,0,0,0,0-5.66,2.64,2.64,0,0,0-2.21-1,2.68,2.68,0,0,0-2.22,1,5.55,5.55,0,0,0,0,5.66,2.65,2.65,0,0,0,2.21,1Zm15.3-9.9a3.94,3.94,0,0,1,3.15,1.2,5.44,5.44,0,0,1,1,3.63v7.21h-3v-7a3.11,3.11,0,0,0-.52-2,2,2,0,0,0-1.62-.62,2.73,2.73,0,0,0-2.08.82,3,3,0,0,0-.78,2.18v6.66h-3V189.18h2.93v1.75a4.1,4.1,0,0,1,1.61-1.51,4.85,4.85,0,0,1,2.28-.53Z" transform="translate(0.04 -2)"/><text class="cls-41" transform="translate(1566.96 198.93)">	</text><text class="cls-37" transform="translate(1573.47 198.93)">de</text><text class="cls-41" transform="translate(1600.67 198.93)">	</text><text class="cls-43" transform="translate(1190.46 227.76)"><tspan class="cls-39">	</tspan><tspan x="72.08" y="0">logiciel</tspan></text><text class="cls-44" transform="translate(1339.8 227.76)">	</text><text class="cls-43" transform="translate(1346.31 227.76)"><tspan class="cls-45">e</tspan><tspan x="12.61" y="0">t</tspan></text><text class="cls-44" transform="translate(1367.76 227.76)">	</text><text class="cls-43" transform="translate(1374.28 227.76)">matériel</text><text class="cls-44" transform="translate(1464.02 227.76)">	</text><text class="cls-43" transform="translate(1470.53 227.76)">périphérique</text><text class="cls-43" transform="translate(1190.46 285.43)"><tspan class="cls-39">	</tspan><tspan x="72.08" y="0">Wind</tspan><tspan class="cls-46" x="133.36" y="0">o</tspan><tspan class="cls-47" x="147" y="0">w</tspan><tspan x="167.43" y="0">s</tspan></text><text class="cls-44" transform="translate(1369.49 285.43)">	</text><text class="cls-43" transform="translate(1376.01 285.43)"><tspan class="cls-45">e</tspan><tspan x="12.61" y="0">t</tspan></text><text class="cls-44" transform="translate(1397.46 285.43)">	</text><text class="cls-43" transform="translate(1403.98 285.43)">Mac</text><text class="cls-44" transform="translate(1448.88 285.43)">	</text><text class="cls-43" transform="translate(1455.4 285.43)">OS</text><text class="cls-44" transform="translate(1489.44 285.43)">	</text><text class="cls-43" transform="translate(1495.96 285.43)">a<tspan class="cls-42" x="12.97" y="0">v</tspan><tspan x="25.45" y="0">ancé</tspan></text><text class="cls-44" transform="translate(1572.92 285.43)">	</text><text class="cls-43" transform="translate(1579.43 285.43)">:</text><text class="cls-44" transform="translate(1585.39 285.43)">	</text><text class="cls-43" transform="translate(1190.46 314.26)"><tspan class="cls-39">	</tspan><tspan class="cls-48" x="72.08" y="0">F</tspan><tspan x="85.47" y="0">ormatage,</tspan></text><text class="cls-44" transform="translate(1387.97 314.26)">	</text><text class="cls-43" transform="translate(1394.48 314.26)"><tspan class="cls-49">r</tspan><tspan x="8.96" y="0">éin</tspan><tspan class="cls-40" x="41.88" y="0">s</tspan><tspan x="53.44" y="0">tallation</tspan></text><text class="cls-44" transform="translate(1537.76 314.26)">	</text><text class="cls-43" transform="translate(1544.27 314.26)">de</text><text class="cls-37" transform="translate(1190.46 343.1)"><tspan class="cls-39">	</tspan><tspan x="72.08" y="0">dri</tspan><tspan class="cls-46" x="101.83" y="0">v</tspan><tspan x="114.3" y="0">e</tspan><tspan class="cls-50" x="127.06" y="0">r</tspan><tspan x="136.14" y="0">s</tspan></text><text class="cls-51" transform="translate(1338.23 343.1)">	</text><text class="cls-37" transform="translate(1344.75 343.1)"><tspan class="cls-45">e</tspan><tspan x="12.61" y="0">t</tspan></text><text class="cls-51" transform="translate(1366.2 343.1)"><tspan xml:space="preserve">		</tspan></text><text class="cls-37" transform="translate(1379.23 343.1)">logiciels</text><text class="cls-52" transform="translate(1190.46 400.76)"><tspan class="cls-39">	</tspan><tspan x="72.08" y="0">Inte</tspan><tspan class="cls-53" x="114.52" y="0">r</tspan><tspan class="cls-54" x="124.42" y="0">v</tspan><tspan x="136.86" y="0">ention</tspan></text><text class="cls-51" transform="translate(1397 400.76)">	</text><text class="cls-37" transform="translate(1403.52 400.76)">(Diagno<tspan class="cls-40" x="88.06" y="0">s</tspan><tspan x="99.62" y="0">ti</tspan><tspan class="cls-55" x="114.59" y="0">c</tspan><tspan x="126.53" y="0">,</tspan></text><text class="cls-51" transform="translate(1536.01 400.76)">	</text><text class="cls-37" transform="translate(1542.52 400.76)">d<tspan class="cls-42" x="14.44" y="0">e</tspan><tspan x="27.03" y="0">vi</tspan><tspan class="cls-40" x="45.77" y="0">s</tspan><tspan x="57.33" y="0">,</tspan></text><text class="cls-51" transform="translate(1605.76 400.76)">	</text><text class="cls-51" transform="translate(1612.27 400.76)"><tspan xml:space="preserve">		</tspan></text><text class="cls-52" transform="translate(1190.46 429.6)"><tspan class="cls-39">	</tspan><tspan class="cls-48" x="72.08" y="0">r</tspan><tspan x="81.07" y="0">épa</tspan><tspan class="cls-56" x="121.25" y="0">r</tspan><tspan x="130.42" y="0">ation)</tspan></text><text class="cls-57" transform="translate(202.66 730.99)">I</text><text class="cls-58" transform="translate(221.4 701.36)">NTERNET</text><text class="cls-58" transform="translate(207.73 751.55)"><tspan class="cls-59">	</tspan><tspan x="74.07" y="0">In</tspan><tspan class="cls-60" x="95.44" y="0">s</tspan><tspan x="107.32" y="0">tallation</tspan></text><text class="cls-61" transform="translate(407.36 751.55)">	</text><text class="cls-58" transform="translate(414.05 751.55)"><tspan class="cls-62">e</tspan><tspan x="12.94" y="0">t</tspan></text><text class="cls-61" transform="translate(436.09 751.55)">	</text><path class="cls-6" d="M449.85,753.75a6.76,6.76,0,0,1-3.3-.76,5.15,5.15,0,0,1-2.13-2.18,6.84,6.84,0,0,1-.74-3.28,7,7,0,0,1,.77-3.32,5.46,5.46,0,0,1,2.21-2.23,6.72,6.72,0,0,1,3.31-.79,7.94,7.94,0,0,1,2.51.4,5.27,5.27,0,0,1,2,1.1l-.89,2.17a5.85,5.85,0,0,0-1.61-.93,4.69,4.69,0,0,0-1.7-.32,3.14,3.14,0,0,0-2.49,1,5,5,0,0,0,0,5.72,3.14,3.14,0,0,0,2.49,1,4.69,4.69,0,0,0,1.7-.32,5.64,5.64,0,0,0,1.61-.94l.89,2.15a5.69,5.69,0,0,1-2,1.13,8.22,8.22,0,0,1-2.57.4Zm12,0a6.64,6.64,0,0,1-3.25-.76,5.33,5.33,0,0,1-2.16-2.2,7,7,0,0,1-.76-3.33,6.87,6.87,0,0,1,.76-3.32,5.3,5.3,0,0,1,2.16-2.19,7.31,7.31,0,0,1,6.49,0,5.22,5.22,0,0,1,2.15,2.19,7,7,0,0,1,.75,3.32,7.08,7.08,0,0,1-.75,3.33,5.24,5.24,0,0,1-2.15,2.2,6.63,6.63,0,0,1-3.24.76Zm0-2.39a2.77,2.77,0,0,0,2.3-1,5.74,5.74,0,0,0,0-5.81,2.73,2.73,0,0,0-2.27-1,2.77,2.77,0,0,0-2.29,1,5.71,5.71,0,0,0,0,5.81,2.75,2.75,0,0,0,2.27,1Zm15.73-10.17a4,4,0,0,1,3.23,1.23,5.59,5.59,0,0,1,1.07,3.73v7.4h-3.09v-7.23a3.23,3.23,0,0,0-.53-2.05,2,2,0,0,0-1.67-.64,2.79,2.79,0,0,0-2.13.84,3.1,3.1,0,0,0-.81,2.25v6.83h-3.08V741.48h3v1.8a4.17,4.17,0,0,1,1.65-1.55,5.05,5.05,0,0,1,2.35-.54Zm11.36.29h8v12.07h-3.09V743.8H489v9.75h-3.09V743.8h-2.32v-2.32h2.32a5.23,5.23,0,0,1,1.38-3.94,6.24,6.24,0,0,1,4.17-1.44l1.07-.05.14,2.3-1.16,0a2.79,2.79,0,0,0-2,.68,2.58,2.58,0,0,0-.56,1.81Zm4.71-5.63h3.46v3.09h-3.46Zm18.22,5.63v11a5.56,5.56,0,0,1-1.57,4.3,6.56,6.56,0,0,1-4.63,1.46,11.25,11.25,0,0,1-3-.41,8.58,8.58,0,0,1-2.54-1.15l.86-2.17a8.9,8.9,0,0,0,4.64,1.36c2.14,0,3.21-1.06,3.21-3.16v-1.58a3.77,3.77,0,0,1-1.58,1.56,4.94,4.94,0,0,1-2.37.56,5.24,5.24,0,0,1-2.8-.75,5.3,5.3,0,0,1-1.92-2.11,6.85,6.85,0,0,1-.69-3.14,7,7,0,0,1,.68-3.15,5,5,0,0,1,1.92-2.12,5.3,5.3,0,0,1,2.81-.75,4.93,4.93,0,0,1,2.37.55,3.74,3.74,0,0,1,1.58,1.57v-1.83Zm-6.2,9.33a2.88,2.88,0,0,0,2.31-1,3.92,3.92,0,0,0,.83-2.64,4,4,0,0,0-.83-2.67,3.24,3.24,0,0,0-4.6,0,3.94,3.94,0,0,0-.84,2.67,3.9,3.9,0,0,0,.84,2.63,2.86,2.86,0,0,0,2.29,1Zm20.47-9.33v12.07h-3V751.7a3.92,3.92,0,0,1-1.53,1.52,4.36,4.36,0,0,1-2.17.53q-4.46,0-4.45-5v-7.29h3.09v7.31a2.87,2.87,0,0,0,.52,1.9,2,2,0,0,0,1.63.62,2.69,2.69,0,0,0,2.06-.85,3.22,3.22,0,0,0,.78-2.26v-6.72Z" transform="translate(0.04 -2)"/><text class="cls-58" transform="translate(527.81 751.55)"><tspan class="cls-63">r</tspan><tspan x="9.41" y="0">ation :</tspan></text><text class="cls-58" transform="translate(207.73 792.71)"> </text><text class="cls-58" transform="translate(281.79 792.71)">B<tspan class="cls-64" x="16.86" y="0">o</tspan><tspan x="30.81" y="0">x intern</tspan><tspan class="cls-65" x="117.47" y="0">e</tspan><tspan x="130.43" y="0">t</tspan></text><text class="cls-58" transform="translate(207.73 833.86)"><tspan class="cls-59">	</tspan><tspan x="74.07" y="0">Rép</tspan><tspan class="cls-65" x="119.17" y="0">é</tspan><tspan x="132.13" y="0">teur</tspan></text><text class="cls-58" transform="translate(207.73 875.02)"><tspan class="cls-59">	</tspan><tspan x="74.07" y="0">Réseau</tspan></text><text class="cls-58" transform="translate(207.73 916.18)"><tspan class="cls-59">	</tspan><tspan class="cls-66" x="74.07" y="0">P</tspan><tspan x="90.06" y="0">a</tspan><tspan class="cls-67" x="103.39" y="0">r</tspan><tspan x="113.94" y="0">tage</tspan></text><text class="cls-61" transform="translate(372.15 916.18)">	</text><text class="cls-58" transform="translate(378.84 916.18)">de</text><text class="cls-61" transform="translate(406.79 916.18)">	</text><text class="cls-58" transform="translate(413.48 916.18)">documents</text><path class="cls-6" d="M291.52,959.56a8.88,8.88,0,0,1-4.48-1.1,7.39,7.39,0,0,1-2.93-3.13,11.26,11.26,0,0,1,0-9.41A7.36,7.36,0,0,1,287,942.8a8.88,8.88,0,0,1,4.48-1.09,10,10,0,0,1,3.31.54,7.28,7.28,0,0,1,2.62,1.53l-1.06,2.32a8.84,8.84,0,0,0-2.35-1.37,6.93,6.93,0,0,0-2.47-.43,4.76,4.76,0,0,0-3.88,1.63,8.75,8.75,0,0,0,0,9.4,4.76,4.76,0,0,0,3.88,1.63,6.93,6.93,0,0,0,2.47-.43,8.58,8.58,0,0,0,2.35-1.37l1.06,2.32a7.28,7.28,0,0,1-2.62,1.53,10,10,0,0,1-3.31.55Zm13.83,0a6.67,6.67,0,0,1-3.25-.76,5.33,5.33,0,0,1-2.16-2.2,7.68,7.68,0,0,1,0-6.66,5.34,5.34,0,0,1,2.16-2.18,7.24,7.24,0,0,1,6.5,0,5.23,5.23,0,0,1,2.14,2.18,7.68,7.68,0,0,1,0,6.66,5.22,5.22,0,0,1-2.14,2.2,6.67,6.67,0,0,1-3.25.76Zm0-2.39a2.76,2.76,0,0,0,2.29-1,5.75,5.75,0,0,0,0-5.82,3.09,3.09,0,0,0-4.55,0,4.54,4.54,0,0,0-.81,2.91,4.63,4.63,0,0,0,.79,2.91,2.75,2.75,0,0,0,2.28,1ZM321.05,947a4.06,4.06,0,0,1,3.24,1.24,5.63,5.63,0,0,1,1.06,3.73v7.4h-3.09V952.1a3.23,3.23,0,0,0-.53-2.05,2,2,0,0,0-1.67-.64,2.81,2.81,0,0,0-2.13.84,3.09,3.09,0,0,0-.8,2.24v6.84H314V947.26h3v1.8a4.19,4.19,0,0,1,1.66-1.55,5,5,0,0,1,2.34-.55Zm11.36.3h8v12.07H337.3v-9.75h-4.89v9.75h-3.09v-9.75H327v-2.32h2.32a5.18,5.18,0,0,1,1.39-3.94,6.24,6.24,0,0,1,4.17-1.44l1.06,0,.15,2.3-1.16,0a2.8,2.8,0,0,0-1.95.68,2.58,2.58,0,0,0-.57,1.82Zm4.71-5.63h3.46v3.09h-3.46Z" transform="translate(0.04 -2)"/><text class="cls-58" transform="translate(342.03 957.33)">gu<tspan class="cls-68" x="29.23" y="0">r</tspan><tspan class="cls-69" x="38.66" y="0">ation</tspan></text><text class="cls-70" transform="translate(438.02 957.33)">	</text><text class="cls-58" transform="translate(444.71 957.33)">d<tspan class="cls-71" x="14.84" y="0">e</tspan></text><text class="cls-70" transform="translate(472.66 957.33)">	</text><text class="cls-72" transform="translate(479.35 957.33)">boite</text><text class="cls-70" transform="translate(536.87 957.33)">	</text><text class="cls-72" transform="translate(543.56 957.33)">mail…</text><text class="cls-73" transform="translate(636.89 724.83)">N</text><text class="cls-74" transform="translate(686.83 695.14)">UMÉRI<tspan class="cls-75" x="77.65" y="0">S</tspan><tspan class="cls-76" x="93.26" y="0">A</tspan><tspan x="109.49" y="0">TION</tspan></text><text class="cls-74" transform="translate(641.98 755.75)"> </text><text class="cls-74" transform="translate(716.19 755.75)">Numérisation de document papier</text><text class="cls-74" transform="translate(641.98 817.6)"> </text><text class="cls-74" transform="translate(716.19 817.6)">Ph<tspan class="cls-77" x="30.8" y="0">o</tspan><tspan x="44.95" y="0">tocopie noir </tspan><tspan class="cls-78" x="186.75" y="0">e</tspan><tspan x="199.71" y="0">t </tspan><tspan class="cls-71" x="215.54" y="0">blanc</tspan></text><text class="cls-79" transform="translate(1190.88 717.4)">S</text><text class="cls-80" transform="translate(1232.26 691.6)"><tspan class="cls-81">A</tspan><tspan x="17.71" y="0">UV</tspan><tspan class="cls-82" x="52.44" y="0">E</tspan><tspan class="cls-83" x="66.55" y="0">GARDE </tspan><tspan class="cls-71" x="157.37" y="0">&amp; R</tspan><tspan class="cls-84" x="196.9" y="0">E</tspan><tspan class="cls-85" x="210.8" y="0">S</tspan><tspan class="cls-86" x="225.78" y="0">T</tspan><tspan class="cls-87" x="238.42" y="0">A</tspan><tspan class="cls-71" x="256.14" y="0">U</tspan><tspan class="cls-88" x="273.73" y="0">R</tspan><tspan class="cls-86" x="290.24" y="0">A</tspan><tspan class="cls-71" x="305.99" y="0">TION</tspan></text><text class="cls-80" transform="translate(1193.66 734.2)"> </text><text class="cls-89" transform="translate(1265.66 734.2)">Sau<tspan class="cls-90" x="42.17" y="0">v</tspan><tspan x="54.63" y="0">ega</tspan><tspan class="cls-91" x="94.85" y="0">r</tspan><tspan x="103.83" y="0">de de données </tspan></text><text class="cls-80" transform="translate(1193.66 763)"> </text><text class="cls-89" transform="translate(1265.66 763)">(Automatique ou manuel sur le sup</text><text class="cls-80" transform="translate(1652.85 656)"> </text><text class="cls-80" transform="translate(1193.66 791.81)"> </text><text class="cls-89" transform="translate(1265.66 791.81)"><tspan class="cls-92">p</tspan><tspan class="cls-93" x="14.3" y="0">o</tspan><tspan class="cls-94" x="27.96" y="0">r</tspan><tspan class="cls-92" x="38.07" y="0">t de </tspan><tspan class="cls-95" x="86.5" y="0">v</tspan><tspan class="cls-96" x="98.79" y="0">o</tspan><tspan class="cls-92" x="112.37" y="0">t</tspan><tspan class="cls-97" x="121.11" y="0">r</tspan><tspan class="cls-92" x="129.92" y="0">e ch</tspan><tspan class="cls-93" x="174.44" y="0">oi</tspan><tspan class="cls-92" x="194.05" y="0">x </tspan><tspan class="cls-98" x="213.08" y="0">D</tspan><tspan class="cls-92" x="230.6" y="0">V</tspan><tspan class="cls-99" x="247.62" y="0">D</tspan><tspan class="cls-92" x="264.78" y="0">, d</tspan><tspan class="cls-93" x="291.3" y="0">i</tspan><tspan class="cls-92" x="297.25" y="0">sq</tspan><tspan class="cls-93" x="323.08" y="0">u</tspan><tspan class="cls-100" x="336.83" y="0">e du</tspan><tspan class="cls-101" x="383.92" y="0">r</tspan><tspan class="cls-92" x="392.42" y="0">,</tspan><tspan x="398.25" y="0"> </tspan></text><text class="cls-80" transform="translate(1669.71 684.81)"> </text><text class="cls-80" transform="translate(1193.66 820.61)"> </text><text class="cls-89" transform="translate(1265.66 820.61)">US<tspan class="cls-102" x="32.91" y="0">B</tspan><tspan class="cls-83" x="49.15" y="0">, cloud)</tspan></text><text class="cls-80" transform="translate(1193.66 878.21)"> </text><text class="cls-89" transform="translate(1265.66 878.21)">Récupé<tspan class="cls-103" x="82.2" y="0">r</tspan><tspan x="91.35" y="0">ation &amp; </tspan><tspan class="cls-104" x="176.46" y="0">r</tspan><tspan class="cls-105" x="185.41" y="0">e</tspan><tspan class="cls-106" x="198.15" y="0">s</tspan><tspan x="209.7" y="0">tau</tspan><tspan class="cls-103" x="245.41" y="0">r</tspan><tspan x="254.55" y="0">ation </tspan></text><text class="cls-80" transform="translate(1193.66 907.01)"> </text><text class="cls-89" transform="translate(1265.66 907.01)">des données (Ph<tspan class="cls-107" x="183.58" y="0">o</tspan><tspan x="197.31" y="0">tos ou aut</tspan><tspan class="cls-104" x="308.03" y="0">r</tspan><tspan class="cls-105" x="316.98" y="0">es)</tspan></text></svg>